<svg width="17" height="17" viewBox="0 0 17 17" fill="none" xmlns="http://www.w3.org/2000/svg">
<path fill-rule="evenodd" clip-rule="evenodd" d="M10.1794 7.89286H12.3706C12.7028 7.89286 12.9639 7.61818 12.9639 7.28694C12.9639 6.94762 12.7028 6.68101 12.3706 6.68101H10.1794C9.84714 6.68101 9.58609 6.94762 9.58609 7.28694C9.58609 7.61818 9.84714 7.89286 10.1794 7.89286ZM14.9732 3.69258C15.4557 3.69258 15.7721 3.86224 16.0885 4.23387C16.405 4.60551 16.4603 5.13872 16.3891 5.62266L15.6376 10.9225C15.4953 11.9413 14.6409 12.6918 13.6363 12.6918H5.00593C3.95383 12.6918 3.08368 11.8686 2.99666 10.8021L2.2689 1.99517L1.07441 1.78512C0.757992 1.72857 0.536498 1.41348 0.591872 1.09032C0.647245 0.75989 0.955755 0.540949 1.28009 0.590231L3.16674 0.880268C3.4357 0.92955 3.63346 1.15495 3.65719 1.42964L3.80749 3.23934C3.83122 3.49868 4.03689 3.69258 4.29003 3.69258H14.9732ZM4.87919 13.9687C4.21471 13.9687 3.67679 14.5181 3.67679 15.1967C3.67679 15.8673 4.21471 16.4166 4.87919 16.4166C5.53576 16.4166 6.07367 15.8673 6.07367 15.1967C6.07367 14.5181 5.53576 13.9687 4.87919 13.9687ZM13.7785 13.9687C13.114 13.9687 12.5761 14.5181 12.5761 15.1967C12.5761 15.8673 13.114 16.4166 13.7785 16.4166C14.4351 16.4166 14.973 15.8673 14.973 15.1967C14.973 14.5181 14.4351 13.9687 13.7785 13.9687Z" fill="#FF6900"/>
</svg>
