<svg width="31" height="31" viewBox="0 0 31 31" fill="none" xmlns="http://www.w3.org/2000/svg"><path d="M24.4933 18.9697C23.5137 18.759 22.7388 19.2138 22.0526 19.6109C21.3499 20.0203 20.0138 21.1042 19.2479 20.8268C15.3266 19.2122 11.6385 15.7801 10.042 11.8431C9.76063 11.0608 10.8395 9.71613 11.2458 9.00513C11.64 8.31688 12.0854 7.53463 11.8823 6.54773C11.6987 5.66088 9.32427 2.63953 8.48464 1.81332C7.9309 1.26757 7.36363 0.967401 6.7813 0.918889C4.59194 0.824899 2.14678 3.7462 1.71794 4.44506C0.643576 5.93527 0.649595 7.91818 1.736 10.3225C4.3542 16.7806 14.2567 26.5268 20.739 29.2435C21.9353 29.8029 23.0292 30.0833 24.0118 30.0833C24.9733 30.0833 25.8295 29.815 26.5653 29.2829C27.1205 28.963 30.1615 26.3965 30.0818 24.1483C30.0336 23.5752 29.7342 23.0022 29.1955 22.4473C28.3754 21.5999 25.3735 19.1546 24.4933 18.9697Z" fill="#200E32"/></svg>