<svg width="31" height="31" viewBox="0 0 31 31" fill="none" xmlns="http://www.w3.org/2000/svg">
<path fill-rule="evenodd" clip-rule="evenodd" d="M18.5935 14.3816H22.6299C23.242 14.3816 23.7228 13.8756 23.7228 13.2654C23.7228 12.6404 23.242 12.1493 22.6299 12.1493H18.5935C17.9815 12.1493 17.5006 12.6404 17.5006 13.2654C17.5006 13.8756 17.9815 14.3816 18.5935 14.3816ZM27.4241 6.64426C28.313 6.64426 28.8959 6.95679 29.4788 7.64138C30.0617 8.32597 30.1637 9.30821 30.0325 10.1997L28.6482 19.9625C28.3859 21.8392 26.8121 23.2218 24.9615 23.2218H9.06344C7.12537 23.2218 5.52245 21.7053 5.36216 19.7408L4.02154 3.51746L1.82117 3.13052C1.23829 3.02634 0.830276 2.44593 0.932279 1.85063C1.03428 1.24194 1.60259 0.838627 2.20004 0.929409L5.67546 1.46369C6.1709 1.55447 6.5352 1.96969 6.57892 2.47569L6.85579 5.80936C6.8995 6.28708 7.27837 6.64426 7.74468 6.64426H27.4241ZM8.83001 25.574C7.60596 25.574 6.61507 26.586 6.61507 27.8361C6.61507 29.0713 7.60596 30.0833 8.83001 30.0833C10.0395 30.0833 11.0304 29.0713 11.0304 27.8361C11.0304 26.586 10.0395 25.574 8.83001 25.574ZM25.2234 25.574C23.9994 25.574 23.0085 26.586 23.0085 27.8361C23.0085 29.0713 23.9994 30.0833 25.2234 30.0833C26.4329 30.0833 27.4238 29.0713 27.4238 27.8361C27.4238 26.586 26.4329 25.574 25.2234 25.574Z" fill="white"/>
</svg>
