<svg width="25" height="31" viewBox="0 0 25 31" fill="none" xmlns="http://www.w3.org/2000/svg"><path fill-rule="evenodd" clip-rule="evenodd" d="M0.104164 13.0467C0.104164 6.3386 5.70982 0.916672 12.4904 0.916672C19.2902 0.916672 24.8958 6.3386 24.8958 13.0467C24.8958 16.4271 23.6665 19.5653 21.643 22.2252C19.4108 25.1593 16.6594 27.7157 13.5625 29.7223C12.8537 30.186 12.214 30.221 11.4361 29.7223C8.32149 27.7157 5.57012 25.1593 3.35698 22.2252C1.33206 19.5653 0.104164 16.4271 0.104164 13.0467ZM8.40824 13.4244C8.40824 15.6717 10.242 17.4391 12.4904 17.4391C14.7403 17.4391 16.5917 15.6717 16.5917 13.4244C16.5917 11.1947 14.7403 9.34122 12.4904 9.34122C10.242 9.34122 8.40824 11.1947 8.40824 13.4244Z" fill="#200E32"/></svg>