<svg width="42" height="34" viewBox="0 0 42 34" fill="none" xmlns="http://www.w3.org/2000/svg"><path d="M38.2505 33.7106C39.1946 33.7106 40.0126 33.3989 40.7081 32.7834L28.8088 20.8836C28.5233 21.0881 28.2466 21.2869 27.9852 21.4759C27.0947 22.132 26.372 22.6439 25.817 23.0108C25.2621 23.3785 24.5238 23.7533 23.6022 24.1359C22.68 24.519 21.8209 24.71 21.0238 24.71H21.0005H20.9772C20.1801 24.71 19.321 24.5191 18.3988 24.1359C17.4767 23.7533 16.7384 23.3785 16.184 23.0108C15.6291 22.6439 14.9068 22.1321 14.0159 21.4759C13.7676 21.2939 13.4922 21.0942 13.1945 20.8804L1.29297 32.7834C1.98832 33.3989 2.8069 33.7106 3.75092 33.7106H38.2505Z" fill="#FF6900"/><path d="M2.36744 13.3903C1.47703 12.7967 0.687425 12.1168 0 11.351V29.4555L10.488 18.9675C8.38978 17.5027 5.68637 15.6458 2.36744 13.3903Z" fill="#FF6900"/><path d="M39.6557 13.3903C36.4633 15.5511 33.7501 17.4112 31.5156 18.9717L41.9994 29.4559V11.351C41.3272 12.1014 40.5461 12.7808 39.6557 13.3903Z" fill="#FF6900"/><path d="M38.2492 0.710449H3.74976C2.54618 0.710449 1.62084 1.11688 0.972612 1.9289C0.323848 2.74131 0 3.75731 0 4.97576C0 5.95996 0.429764 7.02637 1.28891 8.17528C2.14806 9.32373 3.06226 10.2258 4.03106 10.882C4.56217 11.2572 6.16379 12.3707 8.83594 14.2219C10.2784 15.2215 11.5329 16.0928 12.6109 16.8447C13.5297 17.4849 14.3221 18.0393 14.9764 18.4995C15.0515 18.5521 15.1696 18.6366 15.3264 18.7487C15.4953 18.87 15.709 19.024 15.9727 19.2144C16.4805 19.5816 16.9023 19.8785 17.2383 20.1053C17.5738 20.3321 17.9803 20.5855 18.4572 20.8669C18.9337 21.1479 19.3832 21.3592 19.805 21.4997C20.2269 21.6402 20.6175 21.7106 20.9768 21.7106H21.0001H21.0234C21.3827 21.7106 21.7733 21.6402 22.1953 21.4997C22.6171 21.3592 23.0661 21.1483 23.543 20.8669C24.0194 20.5855 24.4254 20.3316 24.762 20.1053C25.098 19.8785 25.5198 19.5817 26.0277 19.2144C26.2908 19.024 26.5045 18.87 26.6734 18.7491C26.8303 18.6366 26.9483 18.5526 27.0239 18.4995C27.5336 18.1448 28.3278 17.5926 29.3957 16.8512C31.3388 15.5011 34.2004 13.514 37.9927 10.882C39.1332 10.0853 40.086 9.12402 40.8519 7.99936C41.6163 6.8747 41.9995 5.69498 41.9995 4.46059C41.9995 3.42926 41.628 2.54678 40.8864 1.81178C40.144 1.07769 39.2649 0.710449 38.2492 0.710449Z" fill="#FF6900"/></svg>