<svg width="24" height="43" viewBox="0 0 24 43" fill="none" xmlns="http://www.w3.org/2000/svg"><path d="M20.835 0.210449H3.16383C1.47263 0.210449 0.107422 1.58178 0.107422 3.26992V39.154C0.107422 40.8407 1.47263 42.2104 3.16383 42.2104H20.835C22.5231 42.2104 23.8914 40.8407 23.8914 39.154V3.26992C23.8914 1.58178 22.5231 0.210449 20.835 0.210449ZM7.63902 2.06848H16.3629C16.5833 2.06848 16.7623 2.39753 16.7623 2.80465C16.7623 3.21176 16.5833 3.54235 16.3629 3.54235H7.63902C7.41709 3.54235 7.24109 3.21176 7.24109 2.80465C7.24109 2.39753 7.41709 2.06848 7.63902 2.06848ZM12.0009 39.1908C10.925 39.1908 10.0496 38.3153 10.0496 37.2379C10.0496 36.1604 10.925 35.288 12.0009 35.288C13.0738 35.288 13.9493 36.1604 13.9493 37.2379C13.9493 38.3153 13.0738 39.1908 12.0009 39.1908ZM21.6018 32.504H2.39858V5.37283H21.6018V32.504Z" fill="#FF6900"/></svg>