<svg width="36" height="35" viewBox="0 0 36 35" fill="none" xmlns="http://www.w3.org/2000/svg"><path fill-rule="evenodd" clip-rule="evenodd" d="M14.4935 2.36552C15.7908 -0.788516 20.2092 -0.788501 21.5065 2.36553L24.2671 9.07746C24.4494 9.52067 24.8616 9.82351 25.3348 9.86187L32.5004 10.4428C35.8677 10.7158 37.233 14.9651 34.6675 17.1874L29.2081 21.9165C28.8476 22.2288 28.6901 22.7188 28.8003 23.1857L30.4682 30.2567C31.252 33.5794 27.6774 36.2057 24.7946 34.4251L18.6599 30.6359C18.2547 30.3857 17.7453 30.3857 17.3401 30.6359L11.2054 34.4251C8.32254 36.2057 4.74797 33.5794 5.53177 30.2567L7.19972 23.1857C7.30986 22.7188 7.15242 22.2288 6.79191 21.9165L1.33245 17.1874C-1.23303 14.9651 0.132351 10.7158 3.49958 10.4428L10.6652 9.86187C11.1384 9.82351 11.5506 9.52067 11.7329 9.07745L14.4935 2.36552ZM19.1688 3.34873C18.7364 2.29738 17.2636 2.29739 16.8312 3.34873L14.0705 10.0607C13.5236 11.3903 12.2871 12.2988 10.8675 12.4139L3.7019 12.9948C2.57949 13.0858 2.12437 14.5023 2.97952 15.243L8.43898 19.9721C9.52052 20.909 9.99284 22.379 9.66242 23.7798L7.99446 30.8507C7.7332 31.9583 8.92473 32.8337 9.88566 32.2402L16.0204 28.451C17.2358 27.7004 18.7642 27.7004 19.9796 28.451L26.1143 32.2402C27.0753 32.8337 28.2668 31.9583 28.0055 30.8507L26.3376 23.7798C26.0072 22.379 26.4795 20.909 27.561 19.9721L33.0205 15.243C33.8756 14.5023 33.4205 13.0858 32.2981 12.9948L25.1325 12.4139C23.7129 12.2988 22.4764 11.3903 21.9295 10.0607L19.1688 3.34873Z" fill="#FF6900"/></svg>